<svg width="783" height="268" viewBox="0 0 783 268" fill="none" xmlns="http://www.w3.org/2000/svg">
<path fill-rule="evenodd" clip-rule="evenodd" d="M45.2672 262.437C50.2331 265.532 55.6668 267.079 61.5684 267.079C65.4547 267.079 68.9093 266.45 71.932 265.19C74.9907 263.895 77.5816 262.149 79.7047 259.954C81.8638 257.723 83.5191 255.204 84.6706 252.398H85.3184V266H114.898V183.091H85.1025V197.557H84.6706C83.5911 194.75 82.0078 192.177 79.9206 189.838C77.8335 187.463 75.2426 185.574 72.1479 184.17C69.0532 182.731 65.4547 182.011 61.3525 182.011C55.8828 182.011 50.665 183.469 45.699 186.383C40.7691 189.298 36.7388 193.886 33.6081 200.148C33.1062 201.163 32.6449 202.228 32.2243 203.342C39.2741 207.523 44.0001 215.209 44.0001 224C44.0001 232.903 39.1521 240.674 31.9519 244.817C32.3849 246.047 32.865 247.224 33.3922 248.349C36.379 254.647 40.3373 259.343 45.2672 262.437ZM79.5968 241.818C77.6536 243.401 75.3146 244.193 72.5797 244.193C69.8449 244.193 67.5059 243.419 65.5627 241.872C63.6555 240.289 62.1801 238.04 61.1365 235.125C60.129 232.174 59.6252 228.648 59.6252 224.545C59.6252 220.443 60.129 216.934 61.1365 214.02C62.1801 211.069 63.6555 208.82 65.5627 207.273C67.5059 205.689 69.8449 204.898 72.5797 204.898C75.3146 204.898 77.6536 205.689 79.5968 207.273C81.5759 208.82 83.0873 211.069 84.1309 214.02C85.2104 216.934 85.7502 220.443 85.7502 224.545C85.7502 228.576 85.2104 232.066 84.1309 235.017C83.0873 237.932 81.5759 240.199 79.5968 241.818ZM158.458 183.091H129.526V266H159.321V222.818C159.357 219.651 160.005 216.916 161.264 214.613C162.524 212.274 164.197 210.475 166.284 209.216C168.407 207.92 170.692 207.273 173.139 207.273C174.723 207.273 176.18 207.488 177.512 207.92C178.843 208.352 180.12 208.856 181.344 209.432L189.98 185.034C188.325 184.098 186.472 183.361 184.421 182.821C182.37 182.281 180.264 182.011 178.105 182.011C173.679 182.011 169.829 183.361 166.554 186.059C163.28 188.758 160.869 193.023 159.321 198.852H158.458V183.091ZM250.367 204.682V183.091H236.117V163.227H206.322V183.091H195.742V204.682H206.322V242.142C206.25 247.935 207.383 252.757 209.722 256.608C212.061 260.458 215.552 263.283 220.194 265.082C224.836 266.845 230.576 267.547 237.413 267.187C240.795 267.007 243.71 266.63 246.157 266.054C248.64 265.478 250.547 264.992 251.879 264.596L247.561 243.653C246.985 243.797 246.085 243.977 244.862 244.193C243.674 244.409 242.631 244.517 241.731 244.517C240.436 244.517 239.374 244.337 238.546 243.977C237.719 243.581 237.107 243.005 236.711 242.25C236.315 241.458 236.117 240.487 236.117 239.335V204.682H250.367Z" fill="black"/>
<path d="M36 224C36 232.837 28.8366 240 20 240C11.1634 240 4 232.837 4 224C4 215.163 11.1634 208 20 208C28.8366 208 36 215.163 36 224Z" fill="#FF6A97"/>
<path d="M734.766 148.511C725.769 148.511 718.069 146.73 711.663 143.168C705.258 139.569 700.346 134.567 696.928 128.162C693.509 121.721 691.8 114.254 691.8 105.761C691.8 97.2691 693.509 89.8202 696.928 83.4149C700.346 76.9736 705.258 71.9717 711.663 68.4092C718.069 64.8107 725.769 63.0115 734.766 63.0115C743.762 63.0115 751.463 64.8107 757.868 68.4092C764.273 71.9717 769.185 76.9736 772.604 83.4149C776.022 89.8202 777.732 97.2691 777.732 105.761C777.732 114.254 776.022 121.721 772.604 128.162C769.185 134.567 764.273 139.569 757.868 143.168C751.463 146.73 743.762 148.511 734.766 148.511ZM734.982 126.489C737.5 126.489 739.678 125.643 741.513 123.952C743.348 122.261 744.769 119.85 745.777 116.719C746.785 113.588 747.288 109.864 747.288 105.546C747.288 101.191 746.785 97.467 745.777 94.3723C744.769 91.2416 743.348 88.8306 741.513 87.1393C739.678 85.448 737.5 84.6024 734.982 84.6024C732.319 84.6024 730.034 85.448 728.126 87.1393C726.219 88.8306 724.762 91.2416 723.754 94.3723C722.747 97.467 722.243 101.191 722.243 105.546C722.243 109.864 722.747 113.588 723.754 116.719C724.762 119.85 726.219 122.261 728.126 123.952C730.034 125.643 732.319 126.489 734.982 126.489Z" fill="black"/>
<path d="M649.846 147V64.0909H679.641V147H649.846ZM664.744 55.4545C660.713 55.4545 657.259 54.1231 654.38 51.4602C651.501 48.7973 650.062 45.5947 650.062 41.8523C650.062 38.1098 651.501 34.9072 654.38 32.2443C657.259 29.5814 660.713 28.25 664.744 28.25C668.81 28.25 672.264 29.5814 675.107 32.2443C677.986 34.9072 679.425 38.1098 679.425 41.8523C679.425 45.5947 677.986 48.7973 675.107 51.4602C672.264 54.1231 668.81 55.4545 664.744 55.4545Z" fill="black"/>
<path d="M581.862 147V64.091H610.793V79.8524H611.657C613.204 74.0228 615.615 69.7586 618.89 67.0598C622.165 64.3609 626.015 63.0115 630.441 63.0115C632.6 63.0115 634.705 63.2814 636.756 63.8211C638.808 64.3609 640.661 65.0986 642.316 66.0342L633.68 90.4319C632.456 89.8562 631.179 89.3524 629.847 88.9206C628.516 88.4887 627.058 88.2728 625.475 88.2728C623.028 88.2728 620.743 88.9206 618.62 90.216C616.533 91.4755 614.86 93.2747 613.6 95.6137C612.341 97.9168 611.693 100.652 611.657 103.818V147H581.862Z" fill="black"/>
<path d="M513.904 148.08C508.003 148.08 502.569 146.532 497.603 143.437C492.673 140.343 488.715 135.647 485.728 129.349C482.777 123.052 481.302 115.117 481.302 105.545C481.302 95.5416 482.849 87.4091 485.944 81.1477C489.075 74.8863 493.105 70.2983 498.035 67.3835C503.001 64.4687 508.219 63.0113 513.688 63.0113C517.791 63.0113 521.389 63.731 524.484 65.1704C527.578 66.5738 530.169 68.463 532.256 70.838C534.344 73.177 535.927 75.75 537.006 78.5568H537.438V64.0909H567.234V147H537.654V133.398H537.006C535.855 136.204 534.2 138.723 532.04 140.955C529.917 143.15 527.327 144.895 524.268 146.19C521.245 147.45 517.791 148.08 513.904 148.08ZM524.915 125.193C527.65 125.193 529.989 124.401 531.933 122.818C533.912 121.199 535.423 118.932 536.467 116.017C537.546 113.066 538.086 109.576 538.086 105.545C538.086 101.443 537.546 97.9346 536.467 95.0198C535.423 92.0691 533.912 89.82 531.933 88.2727C529.989 86.6894 527.65 85.8977 524.915 85.8977C522.181 85.8977 519.842 86.6894 517.898 88.2727C515.991 89.82 514.516 92.0691 513.472 95.0198C512.465 97.9346 511.961 101.443 511.961 105.545C511.961 109.648 512.465 113.174 513.472 116.125C514.516 119.04 515.991 121.289 517.898 122.872C519.842 124.419 522.181 125.193 524.915 125.193ZM516.495 53.7272L526.859 29.5454H552.336L536.143 53.7272H516.495Z" fill="black"/>
<path d="M415.935 148.08C410.034 148.08 404.6 146.532 399.634 143.438C394.704 140.343 390.746 135.647 387.759 129.349C384.809 123.052 383.333 115.117 383.333 105.546C383.333 95.5417 384.88 87.4091 387.975 81.1478C391.106 74.8864 395.136 70.2983 400.066 67.3836C405.032 64.4688 410.25 63.0114 415.719 63.0114C419.822 63.0114 423.42 63.7311 426.515 65.1705C429.61 66.5739 432.201 68.4631 434.288 70.8381C436.375 73.1771 437.958 75.75 439.038 78.5569H439.469V36.4546H469.265V147H439.685V133.398H439.038C437.886 136.205 436.231 138.724 434.072 140.955C431.949 143.15 429.358 144.895 426.299 146.19C423.276 147.45 419.822 148.08 415.935 148.08ZM426.947 125.193C429.682 125.193 432.021 124.402 433.964 122.818C435.943 121.199 437.454 118.932 438.498 116.017C439.577 113.066 440.117 109.576 440.117 105.546C440.117 101.443 439.577 97.9347 438.498 95.0199C437.454 92.0692 435.943 89.8201 433.964 88.2728C432.021 86.6894 429.682 85.8978 426.947 85.8978C424.212 85.8978 421.873 86.6894 419.93 88.2728C418.023 89.8201 416.547 92.0692 415.504 95.0199C414.496 97.9347 413.992 101.443 413.992 105.546C413.992 109.648 414.496 113.174 415.504 116.125C416.547 119.04 418.023 121.289 419.93 122.872C421.873 124.42 424.212 125.193 426.947 125.193Z" fill="black"/>
<path d="M340.947 147V64.0909H370.743V147H340.947ZM355.845 55.4545C351.815 55.4545 348.36 54.1231 345.482 51.4602C342.603 48.7973 341.163 45.5947 341.163 41.8523C341.163 38.1098 342.603 34.9072 345.482 32.2443C348.36 29.5814 351.815 28.25 355.845 28.25C359.912 28.25 363.366 29.5814 366.209 32.2443C369.088 34.9072 370.527 38.1098 370.527 41.8523C370.527 45.5947 369.088 48.7973 366.209 51.4602C363.366 54.1231 359.912 55.4545 355.845 55.4545Z" fill="black"/>
<path d="M288.711 148.511C279.715 148.511 272.014 146.73 265.609 143.168C259.203 139.569 254.291 134.567 250.873 128.162C247.454 121.721 245.745 114.254 245.745 105.761C245.745 97.2691 247.454 89.8202 250.873 83.4149C254.291 76.9736 259.203 71.9717 265.609 68.4092C272.014 64.8107 279.715 63.0115 288.711 63.0115C296.844 63.0115 303.879 64.4869 309.816 67.4376C315.79 70.3524 320.414 74.4906 323.688 79.8524C326.963 85.1781 328.618 91.4395 328.654 98.6365H301.018C300.622 94.2823 299.362 90.9717 297.239 88.7047C295.152 86.4016 292.453 85.2501 289.143 85.2501C286.552 85.2501 284.285 86.0058 282.342 87.5172C280.398 88.9925 278.887 91.2416 277.808 94.2643C276.728 97.2511 276.188 101.011 276.188 105.546C276.188 110.08 276.728 113.858 277.808 116.881C278.887 119.868 280.398 122.117 282.342 123.628C284.285 125.103 286.552 125.841 289.143 125.841C291.338 125.841 293.281 125.337 294.972 124.33C296.664 123.286 298.031 121.775 299.075 119.796C300.154 117.78 300.802 115.333 301.018 112.455H328.654C328.546 119.76 326.873 126.129 323.634 131.563C320.396 136.96 315.808 141.135 309.87 144.085C303.969 147.036 296.916 148.511 288.711 148.511Z" fill="black"/>
<path d="M203.818 110.727V64.0908H233.614V147H205.33V131.239H204.466C202.667 136.528 199.518 140.667 195.02 143.653C190.522 146.604 185.178 148.079 178.989 148.079C173.195 148.079 168.121 146.748 163.767 144.085C159.449 141.422 156.084 137.752 153.673 133.074C151.298 128.396 150.093 123.034 150.057 116.989V64.0908H179.852V110.727C179.888 114.829 180.932 118.05 182.983 120.389C185.07 122.728 187.985 123.898 191.727 123.898C194.21 123.898 196.351 123.376 198.151 122.332C199.986 121.253 201.389 119.741 202.361 117.798C203.368 115.819 203.854 113.462 203.818 110.727Z" fill="black"/>
<path d="M100.033 36.4546H129.829V120.011C129.865 121.703 130.351 122.998 131.286 123.898C132.258 124.761 133.643 125.193 135.442 125.193C136.378 125.193 137.134 125.157 137.71 125.085C138.285 125.013 138.753 124.905 139.113 124.761L143.431 145.273C142.208 145.669 140.732 146.082 139.005 146.514C137.278 146.946 134.651 147.252 131.124 147.432C120.437 147.972 112.592 146.316 107.59 142.466C102.588 138.58 100.069 132.03 100.033 122.818V36.4546Z" fill="black"/>
<path d="M47.2841 148.511C38.4318 148.511 30.8031 146.82 24.3978 143.438C18.0284 140.019 13.1165 135.125 9.66196 128.756C6.2434 122.35 4.53412 114.686 4.53412 105.761C4.53412 97.1971 6.26139 89.7122 9.71594 83.3069C13.1705 76.9016 18.0464 71.9177 24.3438 68.3552C30.6411 64.7927 38.072 63.0115 46.6364 63.0115C52.8978 63.0115 58.5654 63.9831 63.6392 65.9262C68.7131 67.8694 73.0493 70.6942 76.6478 74.4007C80.2462 78.0711 83.0171 82.5333 84.9603 87.787C86.9034 93.0408 87.875 98.9603 87.875 105.546V112.455H13.8182V96.0456H60.4546C60.4186 93.6706 59.8068 91.5834 58.6193 89.7842C57.4678 87.949 55.9025 86.5276 53.9233 85.52C51.9801 84.4764 49.7671 83.9547 47.2841 83.9547C44.8731 83.9547 42.6601 84.4764 40.6449 85.52C38.6298 86.5276 37.0104 87.931 35.787 89.7302C34.5995 91.5295 33.9697 93.6346 33.8978 96.0456V113.75C33.8978 116.413 34.4555 118.788 35.571 120.875C36.6866 122.962 38.2879 124.6 40.375 125.787C42.4621 126.975 44.9811 127.568 47.9318 127.568C49.983 127.568 51.8542 127.28 53.5455 126.705C55.2728 126.129 56.7481 125.301 57.9716 124.222C59.1951 123.106 60.0947 121.775 60.6705 120.227H87.875C86.9394 125.985 84.7264 130.987 81.2358 135.233C77.7453 139.443 73.1212 142.718 67.3637 145.057C61.6421 147.36 54.9489 148.511 47.2841 148.511Z" fill="black"/>
</svg>
