<svg width="783" height="268" viewBox="0 0 783 268" fill="none" xmlns="http://www.w3.org/2000/svg">
<path fill-rule="evenodd" clip-rule="evenodd" d="M45.2671 262.716C50.233 265.811 55.6667 267.358 61.5682 267.358C65.4546 267.358 68.9092 266.728 71.9319 265.469C74.9906 264.173 77.5815 262.428 79.7046 260.233C81.8637 258.002 83.519 255.483 84.6705 252.676H85.3182V266.279H114.898V183.369H85.1023V197.835H84.6705C83.591 195.029 82.0076 192.456 79.9205 190.117C77.8334 187.742 75.2425 185.852 72.1478 184.449C69.0531 183.01 65.4546 182.29 61.3523 182.29C55.8826 182.29 50.6648 183.747 45.6989 186.662C40.769 189.577 36.7387 194.165 33.608 200.426C33.106 201.442 32.6448 202.507 32.2242 203.621C39.274 207.802 43.9999 215.488 43.9999 224.279C43.9999 233.182 39.152 240.953 31.9518 245.096C32.3848 246.325 32.8649 247.503 33.3921 248.628C36.3788 254.925 40.3372 259.621 45.2671 262.716ZM79.5967 242.097C77.6535 243.68 75.3145 244.472 72.5796 244.472C69.8448 244.472 67.5057 243.698 65.5626 242.151C63.6554 240.567 62.18 238.318 61.1364 235.404C60.1288 232.453 59.6251 228.926 59.6251 224.824C59.6251 220.722 60.1288 217.213 61.1364 214.298C62.18 211.348 63.6554 209.099 65.5626 207.551C67.5057 205.968 69.8448 205.176 72.5796 205.176C75.3145 205.176 77.6535 205.968 79.5967 207.551C81.5758 209.099 83.0872 211.348 84.1307 214.298C85.2103 217.213 85.7501 220.722 85.7501 224.824C85.7501 228.854 85.2103 232.345 84.1307 235.296C83.0872 238.21 81.5758 240.477 79.5967 242.097ZM158.457 183.369H129.526V266.279H159.321V223.097C159.357 219.93 160.005 217.195 161.264 214.892C162.524 212.553 164.197 210.754 166.284 209.494C168.407 208.199 170.692 207.551 173.139 207.551C174.723 207.551 176.18 207.767 177.511 208.199C178.843 208.631 180.12 209.135 181.344 209.71L189.98 185.313C188.325 184.377 186.472 183.639 184.421 183.1C182.369 182.56 180.264 182.29 178.105 182.29C173.679 182.29 169.829 183.639 166.554 186.338C163.279 189.037 160.868 193.301 159.321 199.131H158.457V183.369ZM250.367 204.96V183.369H236.117V163.506H206.322V183.369H195.742V204.96H206.322V242.421C206.25 248.214 207.383 253.036 209.722 256.887C212.061 260.737 215.552 263.562 220.194 265.361C224.836 267.124 230.576 267.826 237.413 267.466C240.795 267.286 243.71 266.908 246.157 266.333C248.64 265.757 250.547 265.271 251.879 264.875L247.56 243.932C246.985 244.076 246.085 244.256 244.862 244.472C243.674 244.688 242.631 244.796 241.731 244.796C240.435 244.796 239.374 244.616 238.546 244.256C237.719 243.86 237.107 243.284 236.711 242.529C236.315 241.737 236.117 240.765 236.117 239.614V204.96H250.367Z" fill="black"/>
<path d="M36 224.279C36 233.115 28.8366 240.279 20 240.279C11.1634 240.279 4 233.115 4 224.279C4 215.442 11.1634 208.279 20 208.279C28.8366 208.279 36 215.442 36 224.279Z" fill="#25A3FF"/>
<path d="M734.766 148.79C725.769 148.79 718.069 147.009 711.663 143.447C705.258 139.848 700.346 134.846 696.928 128.441C693.509 122 691.8 114.533 691.8 106.04C691.8 97.5479 693.509 90.099 696.928 83.6937C700.346 77.2524 705.258 72.2505 711.663 68.688C718.069 65.0895 725.769 63.2903 734.766 63.2903C743.762 63.2903 751.463 65.0895 757.868 68.688C764.273 72.2505 769.185 77.2524 772.604 83.6937C776.022 90.099 777.732 97.5479 777.732 106.04C777.732 114.533 776.022 122 772.604 128.441C769.185 134.846 764.273 139.848 757.868 143.447C751.463 147.009 743.762 148.79 734.766 148.79ZM734.982 126.768C737.5 126.768 739.678 125.922 741.513 124.231C743.348 122.539 744.769 120.128 745.777 116.998C746.785 113.867 747.288 110.143 747.288 105.824C747.288 101.47 746.785 97.7458 745.777 94.6511C744.769 91.5204 743.348 89.1094 741.513 87.4181C739.678 85.7268 737.5 84.8812 734.982 84.8812C732.319 84.8812 730.034 85.7268 728.126 87.4181C726.219 89.1094 724.762 91.5204 723.754 94.6511C722.747 97.7458 722.243 101.47 722.243 105.824C722.243 110.143 722.747 113.867 723.754 116.998C724.762 120.128 726.219 122.539 728.126 124.231C730.034 125.922 732.319 126.768 734.982 126.768Z" fill="black"/>
<path d="M649.846 147.279V64.3697H679.641V147.279H649.846ZM664.744 55.7334C660.713 55.7334 657.259 54.4019 654.38 51.739C651.501 49.0762 650.062 45.8735 650.062 42.1311C650.062 38.3887 651.501 35.186 654.38 32.5231C657.259 29.8602 660.713 28.5288 664.744 28.5288C668.81 28.5288 672.264 29.8602 675.107 32.5231C677.986 35.186 679.425 38.3887 679.425 42.1311C679.425 45.8735 677.986 49.0762 675.107 51.739C672.264 54.4019 668.81 55.7334 664.744 55.7334Z" fill="black"/>
<path d="M581.862 147.279V64.3698H610.793V80.1312H611.657C613.204 74.3016 615.615 70.0374 618.89 67.3386C622.165 64.6397 626.015 63.2903 630.441 63.2903C632.6 63.2903 634.705 63.5602 636.756 64.0999C638.808 64.6397 640.661 65.3774 642.316 66.313L633.68 90.7107C632.456 90.135 631.179 89.6312 629.847 89.1994C628.516 88.7676 627.058 88.5516 625.475 88.5516C623.028 88.5516 620.743 89.1994 618.62 90.4948C616.533 91.7543 614.86 93.5535 613.6 95.8926C612.341 98.1956 611.693 100.93 611.657 104.097V147.279H581.862Z" fill="black"/>
<path d="M513.904 148.358C508.003 148.358 502.569 146.811 497.603 143.716C492.673 140.622 488.715 135.926 485.728 129.628C482.777 123.331 481.302 115.396 481.302 105.824C481.302 95.8204 482.849 87.6879 485.944 81.4265C489.075 75.1651 493.105 70.5771 498.035 67.6623C503.001 64.7475 508.219 63.2901 513.688 63.2901C517.791 63.2901 521.389 64.0098 524.484 65.4492C527.578 66.8526 530.169 68.7418 532.256 71.1168C534.344 73.4559 535.927 76.0288 537.006 78.8356H537.438V64.3697H567.234V147.279H537.654V133.676H537.006C535.855 136.483 534.2 139.002 532.04 141.233C529.917 143.428 527.327 145.174 524.268 146.469C521.245 147.729 517.791 148.358 513.904 148.358ZM524.915 125.472C527.65 125.472 529.989 124.68 531.933 123.097C533.912 121.478 535.423 119.211 536.467 116.296C537.546 113.345 538.086 109.855 538.086 105.824C538.086 101.722 537.546 98.2134 536.467 95.2987C535.423 92.3479 533.912 90.0989 531.933 88.5515C529.989 86.9682 527.65 86.1765 524.915 86.1765C522.181 86.1765 519.842 86.9682 517.898 88.5515C515.991 90.0989 514.516 92.3479 513.472 95.2987C512.465 98.2134 511.961 101.722 511.961 105.824C511.961 109.926 512.465 113.453 513.472 116.404C514.516 119.319 515.991 121.568 517.898 123.151C519.842 124.698 522.181 125.472 524.915 125.472ZM516.495 54.006L526.859 29.8242H552.336L536.143 54.006H516.495Z" fill="black"/>
<path d="M415.935 148.358C410.034 148.358 404.6 146.811 399.634 143.716C394.704 140.622 390.746 135.926 387.759 129.628C384.809 123.331 383.333 115.396 383.333 105.824C383.333 95.8205 384.88 87.6879 387.975 81.4266C391.106 75.1652 395.136 70.5771 400.066 67.6624C405.032 64.7476 410.25 63.2902 415.719 63.2902C419.822 63.2902 423.42 64.0099 426.515 65.4493C429.61 66.8527 432.201 68.7419 434.288 71.1169C436.375 73.4559 437.958 76.0289 439.038 78.8357H439.469V36.7334H469.265V147.279H439.685V133.677H439.038C437.886 136.483 436.231 139.002 434.072 141.233C431.949 143.428 429.358 145.174 426.299 146.469C423.276 147.729 419.822 148.358 415.935 148.358ZM426.947 125.472C429.682 125.472 432.021 124.68 433.964 123.097C435.943 121.478 437.454 119.211 438.498 116.296C439.577 113.345 440.117 109.855 440.117 105.824C440.117 101.722 439.577 98.2135 438.498 95.2987C437.454 92.348 435.943 90.0989 433.964 88.5516C432.021 86.9683 429.682 86.1766 426.947 86.1766C424.212 86.1766 421.873 86.9683 419.93 88.5516C418.023 90.0989 416.547 92.348 415.504 95.2987C414.496 98.2135 413.992 101.722 413.992 105.824C413.992 109.927 414.496 113.453 415.504 116.404C416.547 119.319 418.023 121.568 419.93 123.151C421.873 124.698 424.212 125.472 426.947 125.472Z" fill="black"/>
<path d="M340.947 147.279V64.3697H370.743V147.279H340.947ZM355.845 55.7334C351.815 55.7334 348.36 54.4019 345.482 51.739C342.603 49.0762 341.163 45.8735 341.163 42.1311C341.163 38.3887 342.603 35.186 345.482 32.5231C348.36 29.8602 351.815 28.5288 355.845 28.5288C359.912 28.5288 363.366 29.8602 366.209 32.5231C369.088 35.186 370.527 38.3887 370.527 42.1311C370.527 45.8735 369.088 49.0762 366.209 51.739C363.366 54.4019 359.912 55.7334 355.845 55.7334Z" fill="black"/>
<path d="M288.711 148.79C279.715 148.79 272.014 147.009 265.609 143.447C259.203 139.848 254.291 134.846 250.873 128.441C247.454 122 245.745 114.533 245.745 106.04C245.745 97.5479 247.454 90.099 250.873 83.6937C254.291 77.2524 259.203 72.2505 265.609 68.688C272.014 65.0895 279.715 63.2903 288.711 63.2903C296.844 63.2903 303.879 64.7657 309.816 67.7164C315.79 70.6312 320.414 74.7694 323.688 80.1312C326.963 85.4569 328.618 91.7183 328.654 98.9153H301.018C300.622 94.5611 299.362 91.2505 297.239 88.9835C295.152 86.6804 292.453 85.5289 289.143 85.5289C286.552 85.5289 284.285 86.2846 282.342 87.796C280.398 89.2713 278.887 91.5204 277.808 94.5431C276.728 97.5299 276.188 101.29 276.188 105.824C276.188 110.358 276.728 114.137 277.808 117.16C278.887 120.146 280.398 122.395 282.342 123.907C284.285 125.382 286.552 126.12 289.143 126.12C291.338 126.12 293.281 125.616 294.972 124.608C296.664 123.565 298.031 122.054 299.075 120.074C300.154 118.059 300.802 115.612 301.018 112.733H328.654C328.546 120.038 326.873 126.408 323.634 131.841C320.396 137.239 315.808 141.413 309.87 144.364C303.969 147.315 296.916 148.79 288.711 148.79Z" fill="black"/>
<path d="M203.818 111.006V64.3696H233.614V147.279H205.33V131.517H204.466C202.667 136.807 199.518 140.945 195.02 143.932C190.522 146.883 185.178 148.358 178.989 148.358C173.195 148.358 168.121 147.027 163.767 144.364C159.449 141.701 156.084 138.031 153.673 133.353C151.298 128.675 150.093 123.313 150.057 117.267V64.3696H179.852V111.006C179.888 115.108 180.932 118.329 182.983 120.668C185.07 123.007 187.985 124.176 191.727 124.176C194.21 124.176 196.351 123.655 198.151 122.611C199.986 121.532 201.389 120.02 202.361 118.077C203.368 116.098 203.854 113.741 203.818 111.006Z" fill="black"/>
<path d="M100.033 36.7334H129.829V120.29C129.865 121.982 130.351 123.277 131.286 124.177C132.258 125.04 133.643 125.472 135.442 125.472C136.378 125.472 137.134 125.436 137.71 125.364C138.285 125.292 138.753 125.184 139.113 125.04L143.431 145.552C142.208 145.947 140.732 146.361 139.005 146.793C137.278 147.225 134.651 147.531 131.124 147.711C120.437 148.25 112.592 146.595 107.59 142.745C102.588 138.858 100.069 132.309 100.033 123.097V36.7334Z" fill="black"/>
<path d="M47.2841 148.79C38.4318 148.79 30.8031 147.099 24.3978 143.716C18.0284 140.298 13.1165 135.404 9.66196 129.035C6.2434 122.629 4.53412 114.965 4.53412 106.04C4.53412 97.4759 6.26139 89.991 9.71594 83.5857C13.1705 77.1804 18.0464 72.1965 24.3438 68.634C30.6411 65.0715 38.072 63.2903 46.6364 63.2903C52.8978 63.2903 58.5654 64.2619 63.6392 66.2051C68.7131 68.1482 73.0493 70.973 76.6478 74.6795C80.2462 78.3499 83.0171 82.8121 84.9603 88.0659C86.9034 93.3196 87.875 99.2391 87.875 105.824V112.733H13.8182V96.3244H60.4546C60.4186 93.9494 59.8068 91.8623 58.6193 90.063C57.4678 88.2278 55.9025 86.8064 53.9233 85.7988C51.9801 84.7552 49.7671 84.2335 47.2841 84.2335C44.8731 84.2335 42.6601 84.7552 40.6449 85.7988C38.6298 86.8064 37.0104 88.2098 35.787 90.009C34.5995 91.8083 33.9697 93.9134 33.8978 96.3244V114.029C33.8978 116.692 34.4555 119.067 35.571 121.154C36.6866 123.241 38.2879 124.878 40.375 126.066C42.4621 127.253 44.9811 127.847 47.9318 127.847C49.983 127.847 51.8542 127.559 53.5455 126.983C55.2728 126.408 56.7481 125.58 57.9716 124.501C59.1951 123.385 60.0947 122.054 60.6705 120.506H87.875C86.9394 126.264 84.7264 131.266 81.2358 135.512C77.7453 139.722 73.1212 142.997 67.3637 145.336C61.6421 147.639 54.9489 148.79 47.2841 148.79Z" fill="black"/>
</svg>
