<svg width="783" height="269" viewBox="0 0 783 269" fill="none" xmlns="http://www.w3.org/2000/svg">
<path fill-rule="evenodd" clip-rule="evenodd" d="M45.2671 263.274C50.233 266.368 55.6667 267.916 61.5682 267.916C65.4546 267.916 68.9092 267.286 71.9319 266.027C74.9906 264.731 77.5815 262.986 79.7046 260.791C81.8637 258.56 83.519 256.041 84.6705 253.234H85.3182V266.836H114.898V183.927H85.1023V198.393H84.6705C83.591 195.586 82.0076 193.013 79.9205 190.674C77.8334 188.299 75.2425 186.41 72.1478 185.007C69.0531 183.567 65.4546 182.848 61.3523 182.848C55.8826 182.848 50.6648 184.305 45.6989 187.22C40.769 190.134 36.7387 194.723 33.608 200.984C33.106 202 32.6448 203.064 32.2242 204.179C39.274 208.359 43.9999 216.046 43.9999 224.836C43.9999 233.74 39.152 241.511 31.9518 245.653C32.3848 246.883 32.8649 248.061 33.3921 249.186C36.3788 255.483 40.3372 260.179 45.2671 263.274ZM79.5967 242.654C77.6535 244.238 75.3145 245.029 72.5796 245.029C69.8448 245.029 67.5057 244.256 65.5626 242.708C63.6554 241.125 62.18 238.876 61.1364 235.961C60.1288 233.01 59.6251 229.484 59.6251 225.382C59.6251 221.279 60.1288 217.771 61.1364 214.856C62.18 211.905 63.6554 209.656 65.5626 208.109C67.5057 206.526 69.8448 205.734 72.5796 205.734C75.3145 205.734 77.6535 206.526 79.5967 208.109C81.5758 209.656 83.0872 211.905 84.1307 214.856C85.2103 217.771 85.7501 221.279 85.7501 225.382C85.7501 229.412 85.2103 232.902 84.1307 235.853C83.0872 238.768 81.5758 241.035 79.5967 242.654ZM158.457 183.927H129.526V266.836H159.321V223.654C159.357 220.488 160.005 217.753 161.264 215.45C162.524 213.111 164.197 211.312 166.284 210.052C168.407 208.757 170.692 208.109 173.139 208.109C174.723 208.109 176.18 208.325 177.511 208.757C178.843 209.188 180.12 209.692 181.344 210.268L189.98 185.87C188.325 184.935 186.472 184.197 184.421 183.657C182.369 183.117 180.264 182.848 178.105 182.848C173.679 182.848 169.829 184.197 166.554 186.896C163.279 189.595 160.868 193.859 159.321 199.688H158.457V183.927ZM250.367 205.518V183.927H236.117V164.063H206.322V183.927H195.742V205.518H206.322V242.978C206.25 248.772 207.383 253.594 209.722 257.444C212.061 261.295 215.552 264.119 220.194 265.919C224.836 267.682 230.576 268.384 237.413 268.024C240.795 267.844 243.71 267.466 246.157 266.89C248.64 266.314 250.547 265.829 251.879 265.433L247.56 244.49C246.985 244.634 246.085 244.813 244.862 245.029C243.674 245.245 242.631 245.353 241.731 245.353C240.435 245.353 239.374 245.173 238.546 244.813C237.719 244.418 237.107 243.842 236.711 243.086C236.315 242.295 236.117 241.323 236.117 240.171V205.518H250.367Z" fill="white"/>
<path d="M36 224.836C36 233.673 28.8366 240.836 20 240.836C11.1634 240.836 4 233.673 4 224.836C4 216 11.1634 208.836 20 208.836C28.8366 208.836 36 216 36 224.836Z" fill="#25A3FF"/>
<path d="M734.766 149.348C725.769 149.348 718.069 147.567 711.663 144.004C705.258 140.406 700.346 135.404 696.928 128.998C693.509 122.557 691.8 115.09 691.8 106.598C691.8 98.1055 693.509 90.6566 696.928 84.2513C700.346 77.81 705.258 72.8081 711.663 69.2456C718.069 65.6471 725.769 63.8479 734.766 63.8479C743.762 63.8479 751.463 65.6471 757.868 69.2456C764.273 72.8081 769.185 77.81 772.604 84.2513C776.022 90.6566 777.732 98.1055 777.732 106.598C777.732 115.09 776.022 122.557 772.604 128.998C769.185 135.404 764.273 140.406 757.868 144.004C751.463 147.567 743.762 149.348 734.766 149.348ZM734.982 127.325C737.5 127.325 739.678 126.48 741.513 124.788C743.348 123.097 744.769 120.686 745.777 117.555C746.785 114.425 747.288 110.7 747.288 106.382C747.288 102.028 746.785 98.3034 745.777 95.2087C744.769 92.078 743.348 89.667 741.513 87.9757C739.678 86.2845 737.5 85.4388 734.982 85.4388C732.319 85.4388 730.034 86.2845 728.126 87.9757C726.219 89.667 724.762 92.078 723.754 95.2087C722.747 98.3034 722.243 102.028 722.243 106.382C722.243 110.7 722.747 114.425 723.754 117.555C724.762 120.686 726.219 123.097 728.126 124.788C730.034 126.48 732.319 127.325 734.982 127.325Z" fill="white"/>
<path d="M649.846 147.836V64.9273H679.641V147.836H649.846ZM664.744 56.291C660.713 56.291 657.259 54.9595 654.38 52.2967C651.501 49.6338 650.062 46.4311 650.062 42.6887C650.062 38.9463 651.501 35.7436 654.38 33.0807C657.259 30.4179 660.713 29.0864 664.744 29.0864C668.81 29.0864 672.264 30.4179 675.107 33.0807C677.986 35.7436 679.425 38.9463 679.425 42.6887C679.425 46.4311 677.986 49.6338 675.107 52.2967C672.264 54.9595 668.81 56.291 664.744 56.291Z" fill="white"/>
<path d="M581.862 147.837V64.9274H610.793V80.6888H611.657C613.204 74.8593 615.615 70.5951 618.89 67.8962C622.165 65.1973 626.015 63.8479 630.441 63.8479C632.6 63.8479 634.705 64.1178 636.756 64.6576C638.808 65.1973 640.661 65.935 642.316 66.8706L633.68 91.2684C632.456 90.6926 631.179 90.1888 629.847 89.757C628.516 89.3252 627.058 89.1093 625.475 89.1093C623.028 89.1093 620.743 89.757 618.62 91.0524C616.533 92.3119 614.86 94.1112 613.6 96.4502C612.341 98.7532 611.693 101.488 611.657 104.655V147.837H581.862Z" fill="white"/>
<path d="M513.904 148.916C508.003 148.916 502.569 147.369 497.603 144.274C492.673 141.179 488.715 136.483 485.728 130.186C482.777 123.888 481.302 115.954 481.302 106.382C481.302 96.3781 482.849 88.2455 485.944 81.9841C489.075 75.7228 493.105 71.1347 498.035 68.2199C503.001 65.3051 508.219 63.8478 513.688 63.8478C517.791 63.8478 521.389 64.5674 524.484 66.0068C527.578 67.4102 530.169 69.2995 532.256 71.6745C534.344 74.0135 535.927 76.5864 537.006 79.3932H537.438V64.9273H567.234V147.836H537.654V134.234H537.006C535.855 137.041 534.2 139.56 532.04 141.791C529.917 143.986 527.327 145.731 524.268 147.027C521.245 148.286 517.791 148.916 513.904 148.916ZM524.915 126.03C527.65 126.03 529.989 125.238 531.933 123.655C533.912 122.035 535.423 119.768 536.467 116.853C537.546 113.903 538.086 110.412 538.086 106.382C538.086 102.28 537.546 98.771 536.467 95.8563C535.423 92.9055 533.912 90.6565 531.933 89.1091C529.989 87.5258 527.65 86.7341 524.915 86.7341C522.181 86.7341 519.842 87.5258 517.898 89.1091C515.991 90.6565 514.516 92.9055 513.472 95.8563C512.465 98.771 511.961 102.28 511.961 106.382C511.961 110.484 512.465 114.011 513.472 116.961C514.516 119.876 515.991 122.125 517.898 123.709C519.842 125.256 522.181 126.03 524.915 126.03ZM516.495 54.5637L526.859 30.3818H552.336L536.143 54.5637H516.495Z" fill="white"/>
<path d="M415.935 148.916C410.034 148.916 404.6 147.369 399.634 144.274C394.704 141.179 390.746 136.483 387.759 130.186C384.809 123.889 383.333 115.954 383.333 106.382C383.333 96.3781 384.88 88.2456 387.975 81.9842C391.106 75.7228 395.136 71.1348 400.066 68.22C405.032 65.3052 410.25 63.8478 415.719 63.8478C419.822 63.8478 423.42 64.5675 426.515 66.0069C429.61 67.4103 432.201 69.2995 434.288 71.6745C436.375 74.0136 437.958 76.5865 439.038 79.3933H439.469V37.291H469.265V147.836H439.685V134.234H439.038C437.886 137.041 436.231 139.56 434.072 141.791C431.949 143.986 429.358 145.731 426.299 147.027C423.276 148.286 419.822 148.916 415.935 148.916ZM426.947 126.03C429.682 126.03 432.021 125.238 433.964 123.655C435.943 122.035 437.454 119.768 438.498 116.854C439.577 113.903 440.117 110.412 440.117 106.382C440.117 102.28 439.577 98.7711 438.498 95.8564C437.454 92.9056 435.943 90.6566 433.964 89.1092C432.021 87.5259 429.682 86.7342 426.947 86.7342C424.212 86.7342 421.873 87.5259 419.93 89.1092C418.023 90.6566 416.547 92.9056 415.504 95.8564C414.496 98.7711 413.992 102.28 413.992 106.382C413.992 110.484 414.496 114.011 415.504 116.961C416.547 119.876 418.023 122.125 419.93 123.709C421.873 125.256 424.212 126.03 426.947 126.03Z" fill="white"/>
<path d="M340.947 147.836V64.9273H370.743V147.836H340.947ZM355.845 56.291C351.815 56.291 348.36 54.9595 345.482 52.2967C342.603 49.6338 341.163 46.4311 341.163 42.6887C341.163 38.9463 342.603 35.7436 345.482 33.0807C348.36 30.4179 351.815 29.0864 355.845 29.0864C359.912 29.0864 363.366 30.4179 366.209 33.0807C369.088 35.7436 370.527 38.9463 370.527 42.6887C370.527 46.4311 369.088 49.6338 366.209 52.2967C363.366 54.9595 359.912 56.291 355.845 56.291Z" fill="white"/>
<path d="M288.711 149.348C279.715 149.348 272.014 147.567 265.609 144.004C259.203 140.406 254.291 135.404 250.873 128.998C247.454 122.557 245.745 115.09 245.745 106.598C245.745 98.1055 247.454 90.6566 250.873 84.2513C254.291 77.81 259.203 72.8081 265.609 69.2456C272.014 65.6471 279.715 63.8479 288.711 63.8479C296.844 63.8479 303.879 65.3233 309.816 68.274C315.79 71.1888 320.414 75.3271 323.688 80.6888C326.963 86.0146 328.618 92.2759 328.654 99.4729H301.018C300.622 95.1187 299.362 91.8081 297.239 89.5411C295.152 87.2381 292.453 86.0865 289.143 86.0865C286.552 86.0865 284.285 86.8422 282.342 88.3536C280.398 89.829 278.887 92.078 277.808 95.1007C276.728 98.0875 276.188 101.848 276.188 106.382C276.188 110.916 276.728 114.694 277.808 117.717C278.887 120.704 280.398 122.953 282.342 124.464C284.285 125.94 286.552 126.677 289.143 126.677C291.338 126.677 293.281 126.174 294.972 125.166C296.664 124.123 298.031 122.611 299.075 120.632C300.154 118.617 300.802 116.17 301.018 113.291H328.654C328.546 120.596 326.873 126.965 323.634 132.399C320.396 137.797 315.808 141.971 309.87 144.922C303.969 147.873 296.916 149.348 288.711 149.348Z" fill="white"/>
<path d="M203.818 111.564V64.9272H233.614V147.836H205.33V132.075H204.466C202.667 137.365 199.518 141.503 195.02 144.49C190.522 147.441 185.178 148.916 178.989 148.916C173.195 148.916 168.121 147.584 163.767 144.922C159.449 142.259 156.084 138.588 153.673 133.91C151.298 129.232 150.093 123.87 150.057 117.825V64.9272H179.852V111.564C179.888 115.666 180.932 118.887 182.983 121.226C185.07 123.565 187.985 124.734 191.727 124.734C194.21 124.734 196.351 124.212 198.151 123.169C199.986 122.089 201.389 120.578 202.361 118.635C203.368 116.655 203.854 114.298 203.818 111.564Z" fill="white"/>
<path d="M100.033 37.291H129.829V120.848C129.865 122.539 130.351 123.835 131.286 124.734C132.258 125.598 133.643 126.03 135.442 126.03C136.378 126.03 137.134 125.994 137.71 125.922C138.285 125.85 138.753 125.742 139.113 125.598L143.431 146.109C142.208 146.505 140.732 146.919 139.005 147.351C137.278 147.782 134.651 148.088 131.124 148.268C120.437 148.808 112.592 147.153 107.59 143.302C102.588 139.416 100.069 132.867 100.033 123.655V37.291Z" fill="white"/>
<path d="M47.2841 149.348C38.4318 149.348 30.8031 147.657 24.3978 144.274C18.0284 140.855 13.1165 135.962 9.66196 129.592C6.2434 123.187 4.53412 115.522 4.53412 106.598C4.53412 98.0335 6.26139 90.5487 9.71594 84.1434C13.1705 77.738 18.0464 72.7542 24.3438 69.1917C30.6411 65.6292 38.072 63.8479 46.6364 63.8479C52.8978 63.8479 58.5654 64.8195 63.6392 66.7627C68.7131 68.7058 73.0493 71.5307 76.6478 75.2371C80.2462 78.9076 83.0171 83.3697 84.9603 88.6235C86.9034 93.8773 87.875 99.7968 87.875 106.382V113.291H13.8182V96.882H60.4546C60.4186 94.507 59.8068 92.4199 58.6193 90.6206C57.4678 88.7854 55.9025 87.364 53.9233 86.3564C51.9801 85.3129 49.7671 84.7911 47.2841 84.7911C44.8731 84.7911 42.6601 85.3129 40.6449 86.3564C38.6298 87.364 37.0104 88.7674 35.787 90.5666C34.5995 92.3659 33.9697 94.471 33.8978 96.882V114.587C33.8978 117.249 34.4555 119.624 35.571 121.712C36.6866 123.799 38.2879 125.436 40.375 126.623C42.4621 127.811 44.9811 128.405 47.9318 128.405C49.983 128.405 51.8542 128.117 53.5455 127.541C55.2728 126.965 56.7481 126.138 57.9716 125.058C59.1951 123.943 60.0947 122.611 60.6705 121.064H87.875C86.9394 126.821 84.7264 131.823 81.2358 136.069C77.7453 140.28 73.1212 143.554 67.3637 145.893C61.6421 148.196 54.9489 149.348 47.2841 149.348Z" fill="white"/>
</svg>
