<svg width="1012" height="121" viewBox="0 0 1012 121" fill="none" xmlns="http://www.w3.org/2000/svg">
<path fill-rule="evenodd" clip-rule="evenodd" d="M805.315 115.438C810.281 118.532 815.715 120.08 821.616 120.08C825.503 120.08 828.957 119.45 831.98 118.19C835.039 116.895 837.63 115.15 839.753 112.955C841.912 110.724 843.567 108.205 844.719 105.398H845.366V119H874.946V36.0909H845.151V50.5568H844.719C843.639 47.75 842.056 45.1771 839.969 42.8381C837.882 40.4631 835.291 38.5739 832.196 37.1705C829.101 35.7311 825.503 35.0114 821.401 35.0114C815.931 35.0114 810.713 36.4688 805.747 39.3835C800.817 42.2983 796.787 46.8864 793.656 53.1477C793.154 54.1634 792.693 55.2282 792.272 56.3423C799.322 60.523 804.048 68.2097 804.048 77.0003C804.048 85.9036 799.2 93.6745 792 97.8173C792.433 99.047 792.913 100.224 793.44 101.349C796.427 107.647 800.385 112.343 805.315 115.438ZM839.645 94.8182C837.702 96.4015 835.363 97.1932 832.628 97.1932C829.893 97.1932 827.554 96.4195 825.611 94.8722C823.704 93.2888 822.228 91.0398 821.185 88.125C820.177 85.1743 819.673 81.6478 819.673 77.5455C819.673 73.4432 820.177 69.9347 821.185 67.0199C822.228 64.0692 823.704 61.8201 825.611 60.2727C827.554 58.6894 829.893 57.8977 832.628 57.8977C835.363 57.8977 837.702 58.6894 839.645 60.2727C841.624 61.8201 843.135 64.0692 844.179 67.0199C845.259 69.9347 845.798 73.4432 845.798 77.5455C845.798 81.5758 845.259 85.0663 844.179 88.0171C843.135 90.9318 841.624 93.1989 839.645 94.8182ZM918.506 36.0909H889.574V119H919.369V75.8182C919.405 72.6515 920.053 69.9167 921.312 67.6137C922.572 65.2746 924.245 63.4754 926.332 62.2159C928.455 60.9205 930.741 60.2727 933.187 60.2727C934.771 60.2727 936.228 60.4887 937.56 60.9205C938.891 61.3523 940.169 61.8561 941.392 62.4318L950.028 38.0341C948.373 37.0985 946.52 36.3608 944.469 35.821C942.418 35.2813 940.312 35.0114 938.153 35.0114C933.727 35.0114 929.877 36.3608 926.602 39.0597C923.328 41.7585 920.917 46.0227 919.369 51.8523H918.506V36.0909ZM1010.42 57.6818V36.0909H996.165V16.2273H966.37V36.0909H955.79V57.6818H966.37V95.1421C966.298 100.936 967.432 105.758 969.771 109.608C972.11 113.458 975.6 116.283 980.242 118.082C984.884 119.846 990.624 120.547 997.461 120.188C1000.84 120.008 1003.76 119.63 1006.21 119.054C1008.69 118.478 1010.6 117.992 1011.93 117.597L1007.61 96.6534C1007.03 96.7974 1006.13 96.9773 1004.91 97.1932C1003.72 97.4091 1002.68 97.5171 1001.78 97.5171C1000.48 97.5171 999.422 97.3371 998.594 96.9773C997.767 96.5815 997.155 96.0057 996.759 95.25C996.363 94.4584 996.165 93.4868 996.165 92.3353V57.6818H1010.42Z" fill="black"/>
<path d="M796 77.0002C796 85.8368 788.837 93.0002 780 93.0002C771.163 93.0002 764 85.8368 764 77.0002C764 68.1637 771.163 61.0002 780 61.0002C788.837 61.0002 796 68.1637 796 77.0002Z" fill="#FF6A97"/>
<path fill-rule="evenodd" clip-rule="evenodd" d="M20.3977 115.438C26.803 118.82 34.4318 120.511 43.2841 120.511C50.9488 120.511 57.642 119.36 63.3636 117.057C69.1212 114.718 73.7452 111.443 77.2358 107.233C80.7263 102.987 82.9394 97.9849 83.875 92.2273H56.6704C56.0947 93.7746 55.195 95.1061 53.9716 96.2216C52.7481 97.3012 51.2727 98.1288 49.5454 98.7046C47.8541 99.2803 45.9829 99.5682 43.9318 99.5682C40.981 99.5682 38.4621 98.9744 36.375 97.7869C34.2878 96.5994 32.6865 94.9621 31.571 92.875C30.4555 90.7879 29.8977 88.4129 29.8977 85.75V84.4546H83.875V77.5455C83.875 70.9602 82.9034 65.0407 80.9602 59.7869C79.017 54.5332 76.2462 50.071 72.6477 46.4006C69.0492 42.6941 64.713 39.8693 59.6392 37.9261C54.5653 35.983 48.8977 35.0114 42.6363 35.0114C34.0719 35.0114 26.6411 36.7926 20.3437 40.3551C14.0464 43.9176 9.17042 48.9015 5.71588 55.3068C2.26133 61.7121 0.534058 69.197 0.534058 77.7614C0.534058 86.6856 2.24334 94.3504 5.6619 100.756C9.11644 107.125 14.0284 112.019 20.3977 115.438ZM29.8977 68.0455C29.9697 65.6345 30.5994 63.5294 31.7869 61.7301C33.0104 59.9309 34.6297 58.5275 36.6449 57.5199C38.66 56.4763 40.8731 55.9546 43.2841 55.9546C45.767 55.9546 47.9801 56.4763 49.9233 57.5199C51.9024 58.5275 53.4678 59.9489 54.6193 61.7841C55.8068 63.5833 56.4185 65.6705 56.4545 68.0455H29.8977ZM125.829 8.45454H96.0333V94.8182C96.0693 104.03 98.5883 110.58 103.59 114.466C108.592 118.316 116.437 119.972 127.124 119.432C130.651 119.252 133.278 118.946 135.005 118.514C136.732 118.082 138.208 117.669 139.431 117.273L135.113 96.7614C134.753 96.9053 134.285 97.0133 133.709 97.0852C133.134 97.1572 132.378 97.1932 131.442 97.1932C129.643 97.1932 128.258 96.7614 127.286 95.8977C126.351 94.9981 125.865 93.7027 125.829 92.0114V8.45454ZM199.818 36.0909V82.7273C199.854 85.4621 199.368 87.8191 198.361 89.7983C197.389 91.7415 195.986 93.2528 194.151 94.3324C192.351 95.376 190.21 95.8977 187.727 95.8977C183.985 95.8977 181.07 94.7282 178.983 92.3892C176.932 90.0502 175.888 86.8296 175.852 82.7273V36.0909H146.057V88.9886C146.093 95.0341 147.298 100.396 149.673 105.074C152.084 109.752 155.449 113.422 159.767 116.085C164.121 118.748 169.195 120.08 174.989 120.08C181.178 120.08 186.522 118.604 191.02 115.653C195.518 112.667 198.667 108.528 200.466 103.239H201.33V119H229.614V36.0909H199.818ZM246.873 100.162C250.291 106.567 255.203 111.569 261.609 115.168C268.014 118.73 275.715 120.511 284.711 120.511C292.915 120.511 299.968 119.036 305.87 116.085C311.807 113.134 316.396 108.96 319.634 103.563C322.873 98.1288 324.546 91.7595 324.654 84.4546H297.018C296.802 87.3333 296.154 89.7803 295.075 91.7955C294.031 93.7746 292.664 95.286 290.972 96.3296C289.281 97.3371 287.338 97.8409 285.143 97.8409C282.552 97.8409 280.285 97.1032 278.342 95.6278C276.398 94.1165 274.887 91.8674 273.807 88.8807C272.728 85.858 272.188 82.0796 272.188 77.5455C272.188 73.0114 272.728 69.251 273.807 66.2642C274.887 63.2415 276.398 60.9924 278.342 59.5171C280.285 58.0057 282.552 57.25 285.143 57.25C288.453 57.25 291.152 58.4015 293.239 60.7046C295.362 62.9716 296.622 66.2822 297.018 70.6364H324.654C324.618 63.4394 322.963 57.178 319.688 51.8523C316.414 46.4905 311.789 42.3523 305.816 39.4375C299.879 36.4867 292.843 35.0114 284.711 35.0114C275.715 35.0114 268.014 36.8106 261.609 40.4091C255.203 43.9716 250.291 48.9735 246.873 55.4148C243.454 61.8201 241.745 69.2689 241.745 77.7614C241.745 86.2538 243.454 93.7206 246.873 100.162ZM366.743 36.0909H336.947V119H366.743V36.0909ZM341.482 23.4602C344.36 26.1231 347.815 27.4545 351.845 27.4545C355.911 27.4545 359.366 26.1231 362.209 23.4602C365.088 20.7973 366.527 17.5947 366.527 13.8523C366.527 10.1098 365.088 6.9072 362.209 4.24431C359.366 1.58144 355.911 0.25 351.845 0.25C347.815 0.25 344.36 1.58144 341.482 4.24431C338.603 6.9072 337.163 10.1098 337.163 13.8523C337.163 17.5947 338.603 20.7973 341.482 23.4602ZM395.634 115.438C400.6 118.532 406.034 120.08 411.935 120.08C415.822 120.08 419.276 119.45 422.299 118.19C425.358 116.895 427.949 115.15 430.072 112.955C432.231 110.724 433.886 108.205 435.038 105.398H435.685V119H465.265V8.45454H435.469V50.5568H435.038C433.958 47.75 432.375 45.1771 430.288 42.8381C428.201 40.4631 425.61 38.5739 422.515 37.1705C419.42 35.7311 415.822 35.0114 411.719 35.0114C406.25 35.0114 401.032 36.4688 396.066 39.3835C391.136 42.2983 387.106 46.8864 383.975 53.1477C380.88 59.4091 379.333 67.5417 379.333 77.5455C379.333 87.1174 380.808 95.0521 383.759 101.349C386.746 107.647 390.704 112.343 395.634 115.438ZM429.964 94.8182C428.021 96.4015 425.682 97.1932 422.947 97.1932C420.212 97.1932 417.873 96.4195 415.93 94.8722C414.022 93.2888 412.547 91.0398 411.504 88.125C410.496 85.1742 409.992 81.6477 409.992 77.5455C409.992 73.4432 410.496 69.9347 411.504 67.0199C412.547 64.0691 414.022 61.8201 415.93 60.2727C417.873 58.6894 420.212 57.8977 422.947 57.8977C425.682 57.8977 428.021 58.6894 429.964 60.2727C431.943 61.8201 433.454 64.0691 434.498 67.0199C435.577 69.9347 436.117 73.4432 436.117 77.5455C436.117 81.5758 435.577 85.0663 434.498 88.0171C433.454 90.9318 431.943 93.1989 429.964 94.8182ZM493.603 115.438C498.569 118.532 504.003 120.08 509.904 120.08C513.79 120.08 517.245 119.45 520.268 118.19C523.326 116.895 525.917 115.15 528.04 112.955C530.2 110.724 531.855 108.205 533.006 105.398H533.654V119H563.234V36.0909H533.438V50.5568H533.006C531.927 47.75 530.344 45.1771 528.256 42.8381C526.169 40.4631 523.578 38.5739 520.484 37.1705C517.389 35.7311 513.79 35.0114 509.688 35.0114C504.218 35.0114 499.001 36.4688 494.035 39.3835C489.105 42.2983 485.075 46.8864 481.944 53.1477C478.849 59.4091 477.302 67.5417 477.302 77.5455C477.302 87.1174 478.777 95.0521 481.728 101.349C484.715 107.647 488.673 112.343 493.603 115.438ZM527.932 94.8182C525.989 96.4015 523.65 97.1932 520.915 97.1932C518.181 97.1932 515.842 96.4195 513.898 94.8722C511.991 93.2888 510.516 91.0398 509.472 88.125C508.465 85.1742 507.961 81.6477 507.961 77.5455C507.961 73.4432 508.465 69.9347 509.472 67.0199C510.516 64.0691 511.991 61.8201 513.898 60.2727C515.842 58.6894 518.181 57.8977 520.915 57.8977C523.65 57.8977 525.989 58.6894 527.932 60.2727C529.912 61.8201 531.423 64.0691 532.467 67.0199C533.546 69.9347 534.086 73.4432 534.086 77.5455C534.086 81.5758 533.546 85.0663 532.467 88.0171C531.423 90.9318 529.912 93.1989 527.932 94.8182ZM522.859 1.54545L512.495 25.7273H532.143L548.336 1.54545H522.859ZM606.793 36.0909H577.861V119H607.657V75.8182C607.693 72.6515 608.341 69.9167 609.6 67.6136C610.86 65.2746 612.533 63.4754 614.62 62.2159C616.743 60.9205 619.028 60.2727 621.475 60.2727C623.058 60.2727 624.516 60.4886 625.847 60.9205C627.179 61.3523 628.456 61.8561 629.68 62.4318L638.316 38.0341C636.661 37.0985 634.807 36.3608 632.756 35.821C630.705 35.2813 628.6 35.0114 626.441 35.0114C622.015 35.0114 618.164 36.3608 614.89 39.0597C611.615 41.7585 609.204 46.0227 607.657 51.8523H606.793V36.0909ZM675.641 36.0909H645.846V119H675.641V36.0909ZM650.38 23.4602C653.259 26.1231 656.713 27.4545 660.744 27.4545C664.81 27.4545 668.264 26.1231 671.107 23.4602C673.986 20.7973 675.425 17.5947 675.425 13.8523C675.425 10.1098 673.986 6.9072 671.107 4.24431C668.264 1.58144 664.81 0.25 660.744 0.25C656.713 0.25 653.259 1.58144 650.38 4.24431C647.501 6.9072 646.062 10.1098 646.062 13.8523C646.062 17.5947 647.501 20.7973 650.38 23.4602ZM692.928 100.162C696.346 106.567 701.258 111.569 707.663 115.168C714.069 118.73 721.769 120.511 730.766 120.511C739.762 120.511 747.463 118.73 753.868 115.168C760.273 111.569 765.185 106.567 768.604 100.162C768.886 99.6303 769.156 99.0917 769.415 98.5461C761.468 94.6346 756 86.456 756 77.0003C756 67.7936 761.184 59.7978 768.792 55.7725C768.73 55.6529 768.667 55.5337 768.604 55.4148C765.185 48.9735 760.273 43.9716 753.868 40.4091C747.463 36.8106 739.762 35.0114 730.766 35.0114C721.769 35.0114 714.069 36.8106 707.663 40.4091C701.258 43.9716 696.346 48.9735 692.928 55.4148C689.509 61.8201 687.8 69.2689 687.8 77.7614C687.8 86.2538 689.509 93.7206 692.928 100.162ZM737.513 95.9517C735.678 97.643 733.5 98.4886 730.982 98.4886C728.319 98.4886 726.034 97.643 724.126 95.9517C722.219 94.2604 720.762 91.8494 719.754 88.7188C718.747 85.5881 718.243 81.8636 718.243 77.5455C718.243 73.1913 718.747 69.4669 719.754 66.3722C720.762 63.2415 722.219 60.8305 724.126 59.1392C726.034 57.4479 728.319 56.6023 730.982 56.6023C733.5 56.6023 735.678 57.4479 737.513 59.1392C739.348 60.8305 740.769 63.2415 741.777 66.3722C742.785 69.4669 743.288 73.1913 743.288 77.5455C743.288 81.8636 742.785 85.5881 741.777 88.7188C740.769 91.8494 739.348 94.2604 737.513 95.9517Z" fill="black"/>
</svg>
