<svg width="783" height="268" viewBox="0 0 783 268" fill="none" xmlns="http://www.w3.org/2000/svg">
<path fill-rule="evenodd" clip-rule="evenodd" d="M45.2671 262.995C50.233 266.09 55.6667 267.637 61.5682 267.637C65.4546 267.637 68.9092 267.007 71.9319 265.748C74.9906 264.452 77.5815 262.707 79.7046 260.512C81.8637 258.281 83.519 255.762 84.6705 252.955H85.3182V266.557H114.898V183.648H85.1023V198.114H84.6705C83.591 195.307 82.0076 192.734 79.9205 190.395C77.8334 188.02 75.2425 186.131 72.1478 184.728C69.0531 183.288 65.4546 182.569 61.3523 182.569C55.8826 182.569 50.6648 184.026 45.6989 186.941C40.769 189.856 36.7387 194.444 33.608 200.705C33.106 201.721 32.6448 202.786 32.2242 203.9C39.274 208.08 43.9999 215.767 43.9999 224.558C43.9999 233.461 39.152 241.232 31.9518 245.375C32.3848 246.604 32.8649 247.782 33.3921 248.907C36.3788 255.204 40.3372 259.9 45.2671 262.995ZM79.5967 242.376C77.6535 243.959 75.3145 244.751 72.5796 244.751C69.8448 244.751 67.5057 243.977 65.5626 242.43C63.6554 240.846 62.18 238.597 61.1364 235.682C60.1288 232.732 59.6251 229.205 59.6251 225.103C59.6251 221.001 60.1288 217.492 61.1364 214.577C62.18 211.627 63.6554 209.377 65.5626 207.83C67.5057 206.247 69.8448 205.455 72.5796 205.455C75.3145 205.455 77.6535 206.247 79.5967 207.83C81.5758 209.377 83.0872 211.627 84.1307 214.577C85.2103 217.492 85.7501 221.001 85.7501 225.103C85.7501 229.133 85.2103 232.624 84.1307 235.574C83.0872 238.489 81.5758 240.756 79.5967 242.376ZM158.457 183.648H129.526V266.557H159.321V223.376C159.357 220.209 160.005 217.474 161.264 215.171C162.524 212.832 164.197 211.033 166.284 209.773C168.407 208.478 170.692 207.83 173.139 207.83C174.723 207.83 176.18 208.046 177.511 208.478C178.843 208.91 180.12 209.413 181.344 209.989L189.98 185.591C188.325 184.656 186.472 183.918 184.421 183.378C182.369 182.839 180.264 182.569 178.105 182.569C173.679 182.569 169.829 183.918 166.554 186.617C163.279 189.316 160.868 193.58 159.321 199.41H158.457V183.648ZM250.367 205.239V183.648H236.117V163.785H206.322V183.648H195.742V205.239H206.322V242.699C206.25 248.493 207.383 253.315 209.722 257.165C212.061 261.016 215.552 263.841 220.194 265.64C224.836 267.403 230.576 268.105 237.413 267.745C240.795 267.565 243.71 267.187 246.157 266.611C248.64 266.036 250.547 265.55 251.879 265.154L247.56 244.211C246.985 244.355 246.085 244.535 244.862 244.751C243.674 244.966 242.631 245.074 241.731 245.074C240.435 245.074 239.374 244.895 238.546 244.535C237.719 244.139 237.107 243.563 236.711 242.807C236.315 242.016 236.117 241.044 236.117 239.893V205.239H250.367Z" fill="white"/>
<path d="M36 224.558C36 233.394 28.8366 240.558 20 240.558C11.1634 240.558 4 233.394 4 224.558C4 215.721 11.1634 208.558 20 208.558C28.8366 208.558 36 215.721 36 224.558Z" fill="#FF6A97"/>
<path d="M734.766 149.069C725.769 149.069 718.069 147.288 711.663 143.725C705.258 140.127 700.346 135.125 696.928 128.72C693.509 122.278 691.8 114.812 691.8 106.319C691.8 97.8267 693.509 90.3778 696.928 83.9725C700.346 77.5312 705.258 72.5293 711.663 68.9668C718.069 65.3683 725.769 63.5691 734.766 63.5691C743.762 63.5691 751.463 65.3683 757.868 68.9668C764.273 72.5293 769.185 77.5312 772.604 83.9725C776.022 90.3778 777.732 97.8267 777.732 106.319C777.732 114.812 776.022 122.278 772.604 128.72C769.185 135.125 764.273 140.127 757.868 143.725C751.463 147.288 743.762 149.069 734.766 149.069ZM734.982 127.046C737.5 127.046 739.678 126.201 741.513 124.509C743.348 122.818 744.769 120.407 745.777 117.276C746.785 114.146 747.288 110.421 747.288 106.103C747.288 101.749 746.785 98.0246 745.777 94.9299C744.769 91.7992 743.348 89.3882 741.513 87.6969C739.678 86.0056 737.5 85.16 734.982 85.16C732.319 85.16 730.034 86.0056 728.126 87.6969C726.219 89.3882 724.762 91.7992 723.754 94.9299C722.747 98.0246 722.243 101.749 722.243 106.103C722.243 110.421 722.747 114.146 723.754 117.276C724.762 120.407 726.219 122.818 728.126 124.509C730.034 126.201 732.319 127.046 734.982 127.046Z" fill="white"/>
<path d="M649.846 147.558V64.6485H679.641V147.558H649.846ZM664.744 56.0122C660.713 56.0122 657.259 54.6807 654.38 52.0178C651.501 49.355 650.062 46.1523 650.062 42.4099C650.062 38.6675 651.501 35.4648 654.38 32.8019C657.259 30.1391 660.713 28.8076 664.744 28.8076C668.81 28.8076 672.264 30.1391 675.107 32.8019C677.986 35.4648 679.425 38.6675 679.425 42.4099C679.425 46.1523 677.986 49.355 675.107 52.0178C672.264 54.6807 668.81 56.0122 664.744 56.0122Z" fill="white"/>
<path d="M581.862 147.558V64.6486H610.793V80.41H611.657C613.204 74.5805 615.615 70.3162 618.89 67.6174C622.165 64.9185 626.015 63.5691 630.441 63.5691C632.6 63.5691 634.705 63.839 636.756 64.3787C638.808 64.9185 640.661 65.6562 642.316 66.5918L633.68 90.9895C632.456 90.4138 631.179 89.91 629.847 89.4782C628.516 89.0464 627.058 88.8305 625.475 88.8305C623.028 88.8305 620.743 89.4782 618.62 90.7736C616.533 92.0331 614.86 93.8323 613.6 96.1714C612.341 98.4744 611.693 101.209 611.657 104.376V147.558H581.862Z" fill="white"/>
<path d="M513.904 148.637C508.003 148.637 502.569 147.09 497.603 143.995C492.673 140.9 488.715 136.204 485.728 129.907C482.777 123.61 481.302 115.675 481.302 106.103C481.302 96.0992 482.849 87.9667 485.944 81.7053C489.075 75.4439 493.105 70.8559 498.035 67.9411C503.001 65.0263 508.219 63.5689 513.688 63.5689C517.791 63.5689 521.389 64.2886 524.484 65.728C527.578 67.1314 530.169 69.0206 532.256 71.3956C534.344 73.7347 535.927 76.3076 537.006 79.1144H537.438V64.6485H567.234V147.558H537.654V133.955H537.006C535.855 136.762 534.2 139.281 532.04 141.512C529.917 143.707 527.327 145.452 524.268 146.748C521.245 148.007 517.791 148.637 513.904 148.637ZM524.915 125.751C527.65 125.751 529.989 124.959 531.933 123.376C533.912 121.756 535.423 119.489 536.467 116.575C537.546 113.624 538.086 110.133 538.086 106.103C538.086 102.001 537.546 98.4922 536.467 95.5775C535.423 92.6267 533.912 90.3777 531.933 88.8303C529.989 87.247 527.65 86.4553 524.915 86.4553C522.181 86.4553 519.842 87.247 517.898 88.8303C515.991 90.3777 514.516 92.6267 513.472 95.5775C512.465 98.4922 511.961 102.001 511.961 106.103C511.961 110.205 512.465 113.732 513.472 116.683C514.516 119.597 515.991 121.846 517.898 123.43C519.842 124.977 522.181 125.751 524.915 125.751ZM516.495 54.2849L526.859 30.103H552.336L536.143 54.2849H516.495Z" fill="white"/>
<path d="M415.935 148.637C410.034 148.637 404.6 147.09 399.634 143.995C394.704 140.9 390.746 136.204 387.759 129.907C384.809 123.61 383.333 115.675 383.333 106.103C383.333 96.0993 384.88 87.9668 387.975 81.7054C391.106 75.444 395.136 70.856 400.066 67.9412C405.032 65.0264 410.25 63.569 415.719 63.569C419.822 63.569 423.42 64.2887 426.515 65.7281C429.61 67.1315 432.201 69.0207 434.288 71.3957C436.375 73.7347 437.958 76.3077 439.038 79.1145H439.469V37.0122H469.265V147.558H439.685V133.955H439.038C437.886 136.762 436.231 139.281 434.072 141.512C431.949 143.707 429.358 145.453 426.299 146.748C423.276 148.007 419.822 148.637 415.935 148.637ZM426.947 125.751C429.682 125.751 432.021 124.959 433.964 123.376C435.943 121.757 437.454 119.489 438.498 116.575C439.577 113.624 440.117 110.133 440.117 106.103C440.117 102.001 439.577 98.4923 438.498 95.5775C437.454 92.6268 435.943 90.3777 433.964 88.8304C432.021 87.2471 429.682 86.4554 426.947 86.4554C424.212 86.4554 421.873 87.2471 419.93 88.8304C418.023 90.3777 416.547 92.6268 415.504 95.5775C414.496 98.4923 413.992 102.001 413.992 106.103C413.992 110.205 414.496 113.732 415.504 116.683C416.547 119.597 418.023 121.846 419.93 123.43C421.873 124.977 424.212 125.751 426.947 125.751Z" fill="white"/>
<path d="M340.947 147.558V64.6485H370.743V147.558H340.947ZM355.845 56.0122C351.815 56.0122 348.36 54.6807 345.482 52.0178C342.603 49.355 341.163 46.1523 341.163 42.4099C341.163 38.6675 342.603 35.4648 345.482 32.8019C348.36 30.1391 351.815 28.8076 355.845 28.8076C359.912 28.8076 363.366 30.1391 366.209 32.8019C369.088 35.4648 370.527 38.6675 370.527 42.4099C370.527 46.1523 369.088 49.355 366.209 52.0178C363.366 54.6807 359.912 56.0122 355.845 56.0122Z" fill="white"/>
<path d="M288.711 149.069C279.715 149.069 272.014 147.288 265.609 143.725C259.203 140.127 254.291 135.125 250.873 128.72C247.454 122.278 245.745 114.812 245.745 106.319C245.745 97.8267 247.454 90.3778 250.873 83.9725C254.291 77.5312 259.203 72.5293 265.609 68.9668C272.014 65.3683 279.715 63.5691 288.711 63.5691C296.844 63.5691 303.879 65.0445 309.816 67.9952C315.79 70.91 320.414 75.0483 323.688 80.41C326.963 85.7358 328.618 91.9971 328.654 99.1941H301.018C300.622 94.8399 299.362 91.5293 297.239 89.2623C295.152 86.9592 292.453 85.8077 289.143 85.8077C286.552 85.8077 284.285 86.5634 282.342 88.0748C280.398 89.5501 278.887 91.7992 277.808 94.8219C276.728 97.8087 276.188 101.569 276.188 106.103C276.188 110.637 276.728 114.416 277.808 117.438C278.887 120.425 280.398 122.674 282.342 124.186C284.285 125.661 286.552 126.399 289.143 126.399C291.338 126.399 293.281 125.895 294.972 124.887C296.664 123.844 298.031 122.332 299.075 120.353C300.154 118.338 300.802 115.891 301.018 113.012H328.654C328.546 120.317 326.873 126.687 323.634 132.12C320.396 137.518 315.808 141.692 309.87 144.643C303.969 147.594 296.916 149.069 288.711 149.069Z" fill="white"/>
<path d="M203.818 111.285V64.6484H233.614V147.558H205.33V131.796H204.466C202.667 137.086 199.518 141.224 195.02 144.211C190.522 147.162 185.178 148.637 178.989 148.637C173.195 148.637 168.121 147.306 163.767 144.643C159.449 141.98 156.084 138.309 153.673 133.631C151.298 128.953 150.093 123.592 150.057 117.546V64.6484H179.852V111.285C179.888 115.387 180.932 118.608 182.983 120.947C185.07 123.286 187.985 124.455 191.727 124.455C194.21 124.455 196.351 123.933 198.151 122.89C199.986 121.81 201.389 120.299 202.361 118.356C203.368 116.377 203.854 114.02 203.818 111.285Z" fill="white"/>
<path d="M100.033 37.0122H129.829V120.569C129.865 122.26 130.351 123.556 131.286 124.455C132.258 125.319 133.643 125.751 135.442 125.751C136.378 125.751 137.134 125.715 137.71 125.643C138.285 125.571 138.753 125.463 139.113 125.319L143.431 145.83C142.208 146.226 140.732 146.64 139.005 147.072C137.278 147.504 134.651 147.81 131.124 147.989C120.437 148.529 112.592 146.874 107.59 143.024C102.588 139.137 100.069 132.588 100.033 123.376V37.0122Z" fill="white"/>
<path d="M47.2841 149.069C38.4318 149.069 30.8031 147.378 24.3978 143.995C18.0284 140.577 13.1165 135.683 9.66196 129.313C6.2434 122.908 4.53412 115.243 4.53412 106.319C4.53412 97.7547 6.26139 90.2698 9.71594 83.8645C13.1705 77.4592 18.0464 72.4753 24.3438 68.9128C30.6411 65.3503 38.072 63.5691 46.6364 63.5691C52.8978 63.5691 58.5654 64.5407 63.6392 66.4839C68.7131 68.427 73.0493 71.2519 76.6478 74.9583C80.2462 78.6287 83.0171 83.0909 84.9603 88.3447C86.9034 93.5984 87.875 99.518 87.875 106.103V113.012H13.8182V96.6032H60.4546C60.4186 94.2282 59.8068 92.1411 58.6193 90.3418C57.4678 88.5066 55.9025 87.0852 53.9233 86.0776C51.9801 85.034 49.7671 84.5123 47.2841 84.5123C44.8731 84.5123 42.6601 85.034 40.6449 86.0776C38.6298 87.0852 37.0104 88.4886 35.787 90.2878C34.5995 92.0871 33.9697 94.1922 33.8978 96.6032V114.308C33.8978 116.971 34.4555 119.346 35.571 121.433C36.6866 123.52 38.2879 125.157 40.375 126.345C42.4621 127.532 44.9811 128.126 47.9318 128.126C49.983 128.126 51.8542 127.838 53.5455 127.262C55.2728 126.687 56.7481 125.859 57.9716 124.779C59.1951 123.664 60.0947 122.332 60.6705 120.785H87.875C86.9394 126.543 84.7264 131.544 81.2358 135.791C77.7453 140.001 73.1212 143.276 67.3637 145.615C61.6421 147.918 54.9489 149.069 47.2841 149.069Z" fill="white"/>
</svg>
