<svg width="783" height="268" viewBox="0 0 783 268" fill="none" xmlns="http://www.w3.org/2000/svg">
<path fill-rule="evenodd" clip-rule="evenodd" d="M45.2672 262.995C50.2331 266.09 55.6668 267.637 61.5684 267.637C65.4547 267.637 68.9093 267.007 71.932 265.748C74.9907 264.452 77.5816 262.707 79.7047 260.512C81.8638 258.281 83.5191 255.762 84.6706 252.955H85.3184V266.557H114.898V183.648H85.1025V198.114H84.6706C83.5911 195.307 82.0078 192.734 79.9206 190.395C77.8335 188.02 75.2426 186.131 72.1479 184.728C69.0532 183.288 65.4547 182.569 61.3525 182.569C55.8828 182.569 50.665 184.026 45.699 186.941C40.7691 189.856 36.7388 194.444 33.6081 200.705C33.1062 201.721 32.6449 202.786 32.2243 203.9C39.2741 208.08 44.0001 215.767 44.0001 224.558C44.0001 233.461 39.1521 241.232 31.9519 245.375C32.3849 246.604 32.865 247.782 33.3922 248.907C36.379 255.204 40.3373 259.9 45.2672 262.995ZM79.5968 242.376C77.6536 243.959 75.3146 244.751 72.5797 244.751C69.8449 244.751 67.5059 243.977 65.5627 242.43C63.6555 240.846 62.1801 238.597 61.1365 235.682C60.129 232.732 59.6252 229.205 59.6252 225.103C59.6252 221.001 60.129 217.492 61.1365 214.577C62.1801 211.627 63.6555 209.377 65.5627 207.83C67.5059 206.247 69.8449 205.455 72.5797 205.455C75.3146 205.455 77.6536 206.247 79.5968 207.83C81.5759 209.377 83.0873 211.627 84.1309 214.577C85.2104 217.492 85.7502 221.001 85.7502 225.103C85.7502 229.133 85.2104 232.624 84.1309 235.574C83.0873 238.489 81.5759 240.756 79.5968 242.376ZM158.458 183.648H129.526V266.557H159.321V223.376C159.357 220.209 160.005 217.474 161.264 215.171C162.524 212.832 164.197 211.033 166.284 209.773C168.407 208.478 170.692 207.83 173.139 207.83C174.723 207.83 176.18 208.046 177.512 208.478C178.843 208.91 180.12 209.413 181.344 209.989L189.98 185.591C188.325 184.656 186.472 183.918 184.421 183.378C182.37 182.839 180.264 182.569 178.105 182.569C173.679 182.569 169.829 183.918 166.554 186.617C163.28 189.316 160.869 193.58 159.321 199.41H158.458V183.648ZM250.367 205.239V183.648H236.117V163.785H206.322V183.648H195.742V205.239H206.322V242.699C206.25 248.493 207.383 253.315 209.722 257.165C212.061 261.016 215.552 263.841 220.194 265.64C224.836 267.403 230.576 268.105 237.413 267.745C240.795 267.565 243.71 267.187 246.157 266.611C248.64 266.036 250.547 265.55 251.879 265.154L247.561 244.211C246.985 244.355 246.085 244.535 244.862 244.751C243.674 244.966 242.631 245.074 241.731 245.074C240.436 245.074 239.374 244.895 238.546 244.535C237.719 244.139 237.107 243.563 236.711 242.807C236.315 242.016 236.117 241.044 236.117 239.893V205.239H250.367Z" fill="white"/>
<path d="M36 224.558C36 233.394 28.8366 240.558 20 240.558C11.1634 240.558 4 233.394 4 224.558C4 215.721 11.1634 208.558 20 208.558C28.8366 208.558 36 215.721 36 224.558Z" fill="#E82070"/>
<path d="M47.2841 149.069C38.4318 149.069 30.803 147.378 24.3977 143.995C18.0284 140.577 13.1165 135.683 9.66193 129.313C6.24337 122.908 4.53409 115.243 4.53409 106.319C4.53409 97.7546 6.26136 90.2697 9.71591 83.8644C13.1705 77.4591 18.0464 72.4752 24.3438 68.9127C30.6411 65.3502 38.072 63.569 46.6364 63.569C52.8977 63.569 58.5653 64.5406 63.6392 66.4838C68.7131 68.4269 73.0492 71.2517 76.6477 74.9582C80.2462 78.6286 83.017 83.0908 84.9602 88.3445C86.9034 93.5983 87.875 99.5178 87.875 106.103V113.012H13.8182V96.6031H60.4545C60.4186 94.2281 59.8068 92.1409 58.6193 90.3417C57.4678 88.5065 55.9025 87.0851 53.9233 86.0775C51.9801 85.0339 49.767 84.5122 47.2841 84.5122C44.8731 84.5122 42.66 85.0339 40.6449 86.0775C38.6297 87.0851 37.0104 88.4885 35.7869 90.2877C34.5994 92.087 33.9697 94.1921 33.8977 96.6031V114.308C33.8977 116.97 34.4555 119.345 35.571 121.433C36.6866 123.52 38.2879 125.157 40.375 126.345C42.4621 127.532 44.9811 128.126 47.9318 128.126C49.983 128.126 51.8542 127.838 53.5455 127.262C55.2727 126.686 56.7481 125.859 57.9716 124.779C59.1951 123.664 60.0947 122.332 60.6705 120.785H87.875C86.9394 126.542 84.7263 131.544 81.2358 135.791C77.7453 140.001 73.1212 143.275 67.3636 145.614C61.642 147.917 54.9489 149.069 47.2841 149.069ZM100.033 37.0122H129.829V120.569C129.865 122.26 130.351 123.556 131.286 124.455C132.258 125.319 133.643 125.751 135.442 125.751C136.378 125.751 137.134 125.715 137.71 125.643C138.285 125.571 138.753 125.463 139.113 125.319L143.431 145.83C142.208 146.226 140.732 146.64 139.005 147.072C137.278 147.504 134.651 147.81 131.124 147.989C120.437 148.529 112.592 146.874 107.59 143.024C102.588 139.137 100.069 132.588 100.033 123.376V37.0122ZM203.818 111.285V64.6485H233.614V147.558H205.33V131.796H204.466C202.667 137.086 199.518 141.224 195.02 144.211C190.522 147.162 185.178 148.637 178.989 148.637C173.195 148.637 168.121 147.306 163.767 144.643C159.449 141.98 156.084 138.31 153.673 133.631C151.298 128.953 150.093 123.592 150.057 117.546V64.6485H179.852V111.285C179.888 115.387 180.932 118.608 182.983 120.947C185.07 123.286 187.985 124.455 191.727 124.455C194.21 124.455 196.351 123.934 198.151 122.89C199.986 121.81 201.389 120.299 202.361 118.356C203.368 116.377 203.854 114.02 203.818 111.285ZM288.711 149.069C279.715 149.069 272.014 147.288 265.609 143.725C259.203 140.127 254.291 135.125 250.873 128.72C247.454 122.278 245.745 114.811 245.745 106.319C245.745 97.8266 247.454 90.3777 250.873 83.9724C254.291 77.5311 259.203 72.5292 265.609 68.9667C272.014 65.3682 279.715 63.569 288.711 63.569C296.844 63.569 303.879 65.0444 309.816 67.9951C315.79 70.9099 320.414 75.0481 323.688 80.4099C326.963 85.7356 328.618 91.997 328.654 99.194H301.018C300.622 94.8398 299.362 91.5292 297.239 89.2622C295.152 86.9591 292.453 85.8076 289.143 85.8076C286.552 85.8076 284.285 86.5633 282.342 88.0747C280.398 89.55 278.887 91.7991 277.808 94.8218C276.728 97.8086 276.188 101.569 276.188 106.103C276.188 110.637 276.728 114.416 277.808 117.438C278.887 120.425 280.398 122.674 282.342 124.185C284.285 125.661 286.552 126.399 289.143 126.399C291.338 126.399 293.281 125.895 294.972 124.887C296.664 123.844 298.031 122.332 299.075 120.353C300.154 118.338 300.802 115.891 301.018 113.012H328.654C328.546 120.317 326.873 126.686 323.634 132.12C320.396 137.518 315.808 141.692 309.87 144.643C303.969 147.594 296.915 149.069 288.711 149.069ZM340.947 147.558V64.6485H370.743V147.558H340.947ZM355.845 56.0122C351.815 56.0122 348.36 54.6807 345.482 52.0178C342.603 49.355 341.163 46.1523 341.163 42.4099C341.163 38.6675 342.603 35.4648 345.482 32.8019C348.36 30.1391 351.815 28.8076 355.845 28.8076C359.911 28.8076 363.366 30.1391 366.209 32.8019C369.088 35.4648 370.527 38.6675 370.527 42.4099C370.527 46.1523 369.088 49.355 366.209 52.0178C363.366 54.6807 359.911 56.0122 355.845 56.0122ZM415.935 148.637C410.034 148.637 404.6 147.09 399.634 143.995C394.704 140.9 390.746 136.204 387.759 129.907C384.808 123.61 383.333 115.675 383.333 106.103C383.333 96.0993 384.88 87.9667 387.975 81.7053C391.106 75.444 395.136 70.8559 400.066 67.9411C405.032 65.0264 410.25 63.569 415.719 63.569C419.822 63.569 423.42 64.2887 426.515 65.7281C429.61 67.1315 432.201 69.0207 434.288 71.3957C436.375 73.7347 437.958 76.3076 439.038 79.1144H439.469V37.0122H469.265V147.558H439.685V133.955H439.038C437.886 136.762 436.231 139.281 434.072 141.512C431.949 143.707 429.358 145.453 426.299 146.748C423.276 148.007 419.822 148.637 415.935 148.637ZM426.947 125.751C429.682 125.751 432.021 124.959 433.964 123.376C435.943 121.756 437.454 119.489 438.498 116.575C439.577 113.624 440.117 110.133 440.117 106.103C440.117 102.001 439.577 98.4923 438.498 95.5775C437.454 92.6267 435.943 90.3777 433.964 88.8303C432.021 87.247 429.682 86.4553 426.947 86.4553C424.212 86.4553 421.873 87.247 419.93 88.8303C418.022 90.3777 416.547 92.6267 415.504 95.5775C414.496 98.4923 413.992 102.001 413.992 106.103C413.992 110.205 414.496 113.732 415.504 116.683C416.547 119.597 418.022 121.846 419.93 123.43C421.873 124.977 424.212 125.751 426.947 125.751ZM513.904 148.637C508.003 148.637 502.569 147.09 497.603 143.995C492.673 140.9 488.715 136.204 485.728 129.907C482.777 123.61 481.302 115.675 481.302 106.103C481.302 96.0993 482.849 87.9667 485.944 81.7053C489.075 75.444 493.105 70.8559 498.035 67.9411C503.001 65.0264 508.219 63.569 513.688 63.569C517.79 63.569 521.389 64.2887 524.484 65.7281C527.578 67.1315 530.169 69.0207 532.256 71.3957C534.344 73.7347 535.927 76.3076 537.006 79.1144H537.438V64.6485H567.234V147.558H537.654V133.955H537.006C535.855 136.762 534.2 139.281 532.04 141.512C529.917 143.707 527.326 145.453 524.268 146.748C521.245 148.007 517.79 148.637 513.904 148.637ZM524.915 125.751C527.65 125.751 529.989 124.959 531.933 123.376C533.912 121.756 535.423 119.489 536.467 116.575C537.546 113.624 538.086 110.133 538.086 106.103C538.086 102.001 537.546 98.4923 536.467 95.5775C535.423 92.6267 533.912 90.3777 531.933 88.8303C529.989 87.247 527.65 86.4553 524.915 86.4553C522.181 86.4553 519.842 87.247 517.898 88.8303C515.991 90.3777 514.516 92.6267 513.472 95.5775C512.465 98.4923 511.961 102.001 511.961 106.103C511.961 110.205 512.465 113.732 513.472 116.683C514.516 119.597 515.991 121.846 517.898 123.43C519.842 124.977 522.181 125.751 524.915 125.751ZM516.495 54.2849L526.859 30.1031H552.336L536.143 54.2849H516.495ZM581.862 147.558V64.6485H610.793V80.4099H611.657C613.204 74.5803 615.615 70.3161 618.89 67.6173C622.165 64.9184 626.015 63.569 630.441 63.569C632.6 63.569 634.705 63.8389 636.756 64.3786C638.808 64.9184 640.661 65.6561 642.316 66.5917L633.68 90.9894C632.456 90.4137 631.179 89.9099 629.847 89.4781C628.516 89.0463 627.058 88.8303 625.475 88.8303C623.028 88.8303 620.743 89.4781 618.62 90.7735C616.533 92.033 614.86 93.8322 613.6 96.1713C612.341 98.4743 611.693 101.209 611.657 104.376V147.558H581.862ZM649.846 147.558V64.6485H679.641V147.558H649.846ZM664.744 56.0122C660.713 56.0122 657.259 54.6807 654.38 52.0178C651.501 49.355 650.062 46.1523 650.062 42.4099C650.062 38.6675 651.501 35.4648 654.38 32.8019C657.259 30.1391 660.713 28.8076 664.744 28.8076C668.81 28.8076 672.264 30.1391 675.107 32.8019C677.986 35.4648 679.425 38.6675 679.425 42.4099C679.425 46.1523 677.986 49.355 675.107 52.0178C672.264 54.6807 668.81 56.0122 664.744 56.0122ZM734.766 149.069C725.769 149.069 718.069 147.288 711.663 143.725C705.258 140.127 700.346 135.125 696.928 128.72C693.509 122.278 691.8 114.811 691.8 106.319C691.8 97.8266 693.509 90.3777 696.928 83.9724C700.346 77.5311 705.258 72.5292 711.663 68.9667C718.069 65.3682 725.769 63.569 734.766 63.569C743.762 63.569 751.463 65.3682 757.868 68.9667C764.273 72.5292 769.185 77.5311 772.604 83.9724C776.022 90.3777 777.732 97.8266 777.732 106.319C777.732 114.811 776.022 122.278 772.604 128.72C769.185 135.125 764.273 140.127 757.868 143.725C751.463 147.288 743.762 149.069 734.766 149.069ZM734.982 127.046C737.5 127.046 739.678 126.201 741.513 124.509C743.348 122.818 744.769 120.407 745.777 117.276C746.785 114.146 747.288 110.421 747.288 106.103C747.288 101.749 746.785 98.0245 745.777 94.9298C744.769 91.7991 743.348 89.3881 741.513 87.6968C739.678 86.0055 737.5 85.1599 734.982 85.1599C732.319 85.1599 730.034 86.0055 728.126 87.6968C726.219 89.3881 724.762 91.7991 723.754 94.9298C722.747 98.0245 722.243 101.749 722.243 106.103C722.243 110.421 722.747 114.146 723.754 117.276C724.762 120.407 726.219 122.818 728.126 124.509C730.034 126.201 732.319 127.046 734.982 127.046Z" fill="white"/>
</svg>
